PathFileType	4	(x/y/z)	S09_PSF_T03
DataRate	CameraRate	NumFrames	NumMarkers	Units	OrigDataRate	OrigDataStartFrame	OrigNumFrames
240	240	6	51	mm	240	173	461
Frame#	Time	Sternum			R.Acromium			L.Acromium			Top.Head			R.ASIS			L.ASIS			R.PSIS			L.PSIS			R.Great.Tro			L.Great.Tro			R.Iliac.Crest			L.Iliac.Crest			V.Sacral			R.Thigh.Upper.Post			R.Thigh.Lower.Ant			R.Thigh.Lower.Post			R.Thigh.Upper.Ant			R.Knee.Lat			R.Knee.Med			R.Shank.Upper.Post			R.Shank.Lower.Ant			R.Shank.Lower.Post			R.Shank.Upper.Ant			R.Ankle.Lat			R.Ankle.Med			R.Heel.Upper			R.Heel.Med			R.Heel.Lat			R.Toe.Lat			R.Toe.Med			R.Toe.Tip			L.Thigh.Upper.Post			L.Thigh.Lower.Ant			L.Thigh.Lower.Post			L.Thigh.Upper.Ant			L.Knee.Lat			L.Knee.Med			L.Shank.Upper.Post			L.Shank.Lower.Ant			L.Shank.Lower.Post			L.Shank.Upper.Ant			L.Ankle.Lat			L.Ankle.Med			L.Heel.Upper			L.Heel.Med			L.Heel.Lat			L.Toe.Lat			L.Toe.Med			L.Toe.Tip			Cervical.Spine			Back			
		X1	Y1	Z1	X2	Y2	Z2	X3	Y3	Z3	X4	Y4	Z4	X5	Y5	Z5	X6	Y6	Z6	X7	Y7	Z7	X8	Y8	Z8	X9	Y9	Z9	X10	Y10	Z10	X11	Y11	Z11	X12	Y12	Z12	X13	Y13	Z13	X14	Y14	Z14	X15	Y15	Z15	X16	Y16	Z16	X17	Y17	Z17	X18	Y18	Z18	X19	Y19	Z19	X20	Y20	Z20	X21	Y21	Z21	X22	Y22	Z22	X23	Y23	Z23	X24	Y24	Z24	X25	Y25	Z25	X26	Y26	Z26	X27	Y27	Z27	X28	Y28	Z28	X29	Y29	Z29	X30	Y30	Z30	X31	Y31	Z31	X32	Y32	Z32	X33	Y33	Z33	X34	Y34	Z34	X35	Y35	Z35	X36	Y36	Z36	X37	Y37	Z37	X38	Y38	Z38	X39	Y39	Z39	X40	Y40	Z40	X41	Y41	Z41	X42	Y42	Z42	X43	Y43	Z43	X44	Y44	Z44	X45	Y45	Z45	X46	Y46	Z46	X47	Y47	Z47	X48	Y48	Z48	X49	Y49	Z49	X50	Y50	Z50	X51	Y51	Z51	

173	0.71667	-569.57	1167.7	302.11	-735.77	1408	449.48	-713.1	1403.5	134.52	-718.98	1712.3	277.66	-600.01	998.93	388.45	-631.29	987.11	145.61	-831.8	1018.8	343.07	-832.5	1023.7	252.76	-661.23	915.68	471.01	-727.9	901.96	86.705	-690.24	1077.6	445.53	-738.87	1088.2	122.54	-852.85	987.13	294.88	-589.24	671.23	435.13	-496.9	602.28	376.64	-570.15	584.81	400.93	-521.49	683.25	413.35	-497.2	524.34	370.51	-519.54	517.73	249.67	-541.23	339.63	376.95	-467.01	290.23	357.09	-533.3	264.3	364.17	-480.35	361.8	372.01	-484.13	89.259	338.36	-462.97	104.19	249.24	-546.27	74.391	287.01	-533.91	43.177	258.26	-542.1	43.482	322.67	-379.84	43.311	372.56	-335.14	51.274	265.74	-289.35	72.064	310.42	-852.58	674.92	160.85	-803.53	557.94	143.63	-859.72	585.46	176.92	-794.73	645.59	123.95	-847.32	492.68	155.53	-796.43	485.27	280.52	-967.42	421.42	155.42	-976.3	311.6	159.83	-1016.4	362.3	165.48	-927.21	371.51	151.13	-1134	190.46	193.49	-1107.7	179.42	281.84	-1205.4	207.33	254.95	-1207.4	186.67	291.85	-1228.3	184.17	233.49	-1118.7	58.744	174.89	-1072.1	50.363	280.86	-1034.1	40.551	222.02	-802.22	1453	296.37	-837	1183.3	278.16
174	0.72083	-563.36	1168.8	302.33	-729.99	1408.6	449.91	-707.75	1404.1	134.91	-713.56	1712.9	277.82	-593.7	999.81	388.83	-625.02	987.55	146.09	-825.51	1019.4	343.32	-826.19	1023.8	252.98	-655.01	916.79	471.52	-721.08	902.06	87.182	-683.87	1078.4	445.78	-732.68	1088.4	122.86	-846.45	987.4	295.2	-583.14	671.98	435.75	-490.98	602.98	377.14	-564.18	585.53	401.63	-515.44	683.95	413.83	-491.68	524.57	370.77	-513.38	518.31	250.13	-537.59	340.13	377.42	-463.95	290	357.26	-530.49	264.75	364.53	-476.49	361.69	372.29	-483.54	89.264	338.42	-462.38	104.04	249.27	-545.9	74.635	287.07	-533.73	43.411	258.31	-541.88	43.708	322.7	-379.56	42.935	372.64	-334.83	50.323	265.57	-288.79	70.67	310.31	-844.24	674.03	160.74	-794.69	557.46	142.58	-850.82	584.46	176.4	-786.55	645.25	123.32	-838.18	492.37	154.21	-786.18	483.92	278.88	-958.73	422.72	154.56	-969.01	312.99	158.15	-1008.4	364.14	164.45	-919.23	372.35	149.57	-1127.7	193.25	191.94	-1101.3	181.8	280.1	-1197.7	212.78	253.52	-1200.4	192.58	290.62	-1221.5	190.28	232.26	-1117	60.656	174.43	-1070.3	51.501	280.35	-1033.4	40.193	221.71	-796.69	1453.4	296.89	-830.82	1183.7	278.76
175	0.725	-557.2	1169.9	302.55	-724.19	1409.2	450.34	-702.4	1404.7	135.3	-708.13	1713.6	277.98	-587.46	1000.7	389.27	-618.79	988.02	146.61	-819.3	1020	343.54	-819.95	1024	253.17	-648.9	917.89	472.02	-714.31	902.18	87.673	-677.62	1079.3	446.03	-726.5	1088.7	123.17	-840.12	987.68	295.49	-577.18	672.69	436.39	-485.2	603.61	377.64	-558.37	586.21	402.33	-509.52	684.58	414.32	-486.32	524.76	371.04	-507.35	518.89	250.58	-534.07	340.62	377.88	-461	289.78	357.44	-527.79	265.21	364.88	-472.75	361.58	372.56	-483.02	89.28	338.47	-461.86	103.91	249.31	-545.57	74.848	287.12	-533.58	43.625	258.35	-541.69	43.911	322.73	-379.33	42.628	372.73	-334.58	49.499	265.42	-288.31	69.435	310.23	-835.85	673.1	160.6	-785.77	556.98	141.46	-841.86	583.42	175.82	-778.34	644.91	122.64	-828.9	492.05	152.82	-775.76	482.56	277.18	-949.83	424	153.67	-961.49	314.37	156.43	-1000.1	365.94	163.4	-911.02	373.17	147.96	-1121.2	196.05	190.34	-1094.7	184.18	278.35	-1189.6	218.27	252	-1193	198.55	289.28	-1214.2	196.47	230.93	-1115	62.729	173.95	-1068.3	52.788	279.81	-1032.6	39.799	221.36	-791.16	1453.8	297.41	-824.68	1184	279.33
176	0.72917	-551.1	1171	302.76	-718.38	1409.9	450.75	-697.04	1405.4	135.68	-702.72	1714.2	278.15	-581.29	1001.7	389.76	-612.58	988.51	147.18	-813.15	1020.6	343.72	-813.78	1024.2	253.33	-642.89	918.97	472.52	-707.58	902.31	88.176	-671.47	1080.2	446.28	-720.33	1088.9	123.48	-833.85	987.98	295.74	-571.37	673.37	437.05	-479.59	604.17	378.14	-552.74	586.85	403.02	-503.74	685.13	414.83	-481.13	524.92	371.32	-501.5	519.44	251.03	-530.69	341.1	378.3	-458.18	289.55	357.62	-525.21	265.65	365.21	-469.16	361.46	372.84	-482.56	89.302	338.51	-461.41	103.81	249.33	-545.29	75.035	287.17	-533.45	43.82	258.39	-541.52	44.093	322.75	-379.15	42.38	372.81	-334.37	48.785	265.29	-287.91	68.343	310.17	-827.42	672.14	160.43	-776.77	556.5	140.29	-832.83	582.36	175.19	-770.08	644.57	121.91	-819.51	491.71	151.36	-765.19	481.2	275.41	-940.72	425.24	152.75	-953.75	315.73	154.67	-991.64	367.71	162.33	-902.61	373.98	146.31	-1114.3	198.83	188.69	-1087.8	186.56	276.58	-1181	223.79	250.38	-1185.1	204.56	287.85	-1206.5	202.71	229.49	-1112.8	64.96	173.44	-1066.2	54.227	279.25	-1031.7	39.373	220.96	-785.62	1454.3	297.92	-818.58	1184.5	279.88
177	0.73333	-545.06	1172.1	302.96	-712.55	1410.5	451.15	-691.69	1406.1	136.07	-697.31	1714.9	278.32	-575.19	1002.7	390.3	-606.4	989.02	147.77	-807.07	1021.2	343.87	-807.67	1024.4	253.46	-636.96	920.03	473.02	-700.9	902.46	88.69	-665.44	1081.1	446.55	-714.19	1089.2	123.78	-827.66	988.29	295.97	-565.7	673.99	437.72	-474.16	604.64	378.62	-547.3	587.43	403.69	-498.09	685.6	415.34	-476.12	525.05	371.6	-495.86	519.96	251.46	-527.43	341.55	378.69	-455.49	289.32	357.79	-522.75	266.08	365.51	-465.7	361.32	373.1	-482.16	89.331	338.55	-461.02	103.72	249.36	-545.05	75.197	287.21	-533.34	43.995	258.42	-541.38	44.259	322.76	-379.01	42.179	372.88	-334.2	48.168	265.18	-287.57	67.379	310.13	-818.96	671.16	160.21	-767.7	556.03	139.07	-823.74	581.28	174.5	-761.79	644.24	121.14	-809.99	491.37	149.85	-754.49	479.85	273.6	-931.41	426.44	151.79	-945.78	317.07	152.88	-982.94	369.45	161.22	-893.98	374.76	144.62	-1107.2	201.61	187	-1080.7	188.92	274.82	-1172.1	229.31	248.67	-1176.9	210.59	286.32	-1198.3	208.99	227.95	-1110.3	67.346	172.92	-1063.8	55.817	278.65	-1030.6	38.923	220.53	-780.07	1454.9	298.43	-812.53	1185	280.41
178	0.7375	-539.07	1173.2	303.16	-706.71	1411.2	451.55	-686.33	1406.9	136.45	-691.91	1715.6	278.51	-569.16	1003.7	390.88	-600.25	989.55	148.4	-801.05	1021.8	344	-801.64	1024.6	253.58	-631.1	921.05	473.51	-694.29	902.62	89.212	-659.51	1081.9	446.84	-708.05	1089.4	124.08	-821.53	988.61	296.18	-560.19	674.56	438.38	-468.91	605.01	379.09	-542.06	587.97	404.33	-492.58	685.97	415.85	-471.29	525.14	371.88	-490.47	520.44	251.86	-524.32	341.98	379.05	-452.91	289.09	357.96	-520.4	266.49	365.78	-462.39	361.18	373.35	-481.8	89.363	338.58	-460.67	103.65	249.37	-544.83	75.34	287.24	-533.25	44.153	258.45	-541.25	44.41	322.78	-378.89	42.017	372.94	-334.06	47.634	265.07	-287.28	66.529	310.1	-810.47	670.15	159.97	-758.57	555.57	137.81	-814.6	580.19	173.77	-753.47	643.91	120.35	-800.37	491.04	148.28	-743.67	478.54	271.74	-921.9	427.6	150.79	-937.59	318.38	151.08	-974.03	371.13	160.09	-885.15	375.54	142.9	-1099.7	204.37	185.28	-1073.4	191.28	273.06	-1162.8	234.8	246.86	-1168.2	216.6	284.68	-1189.8	215.28	226.31	-1107.6	69.875	172.37	-1061.2	57.552	278.03	-1029.3	38.455	220.05	-774.52	1455.4	298.94	-806.52	1185.5	280.92
